# xmcd
#
# Track frame offsets:
#	150
#	22234
#	45328
#	71169
#	86600
#	105633
#	124550
#	174939
#
# Disc length: 2544 seconds
#
# Revision: 0
# Processed by: cddbd v1.5.2PL0 Copyright (c) Steve Scherf et al.
# Submitted via: SynApp - FreeCDDB Version: 2.3
#
DISCID=6109ee08
DTITLE=Willy Michl - Live [CD 2)
DYEAR=0
DGENRE=Blues
TTITLE0=Blütental
TTITLE1=Indianer
TTITLE2=Ich lieb nur dich
TTITLE3=Das Haus am Niklassee
TTITLE4=Telephonblues
TTITLE5=Die Trud
TTITLE6=I feel all right
TTITLE7=Abschied
EXTD=
EXTT0=
EXTT1=
EXTT2=
EXTT3=
EXTT4=
EXTT5=
EXTT6=
EXTT7=
PLAYORDER=
